<mxfile host="Electron" agent="Mozilla/5.0 (Macintosh; Intel Mac OS X 10_15_7) AppleWebKit/537.36 (KHTML, like Gecko) draw.io/24.7.17 Chrome/128.0.6613.36 Electron/32.0.1 Safari/537.36" version="24.7.17">
  <diagram name="Page-1" id="o7d_l9rEFAbDWQx9tQcT">
    <mxGraphModel dx="745" dy="1625" grid="1" gridSize="10" guides="1" tooltips="1" connect="1" arrows="1" fold="1" page="1" pageScale="1" pageWidth="850" pageHeight="1100" math="1" shadow="0">
      <root>
        <mxCell id="0" />
        <mxCell id="1" parent="0" />
        <mxCell id="n9YYFZ5lC346JbtfTMl2-38" value="" style="group" parent="1" vertex="1" connectable="0">
          <mxGeometry x="40" y="40" width="798" height="320.5" as="geometry" />
        </mxCell>
        <mxCell id="pZ9tJHDrhh_KwONNmrHl-76" value="&lt;font style=&quot;font-size: 16px;&quot;&gt;&lt;b&gt;(a)&lt;/b&gt;&lt;/font&gt;" style="text;html=1;align=center;verticalAlign=middle;whiteSpace=wrap;rounded=0;fontFamily=Helvetica;fontSize=11;fontColor=default;labelBackgroundColor=default;" parent="n9YYFZ5lC346JbtfTMl2-38" vertex="1">
          <mxGeometry x="60" y="290.5" width="60" height="30" as="geometry" />
        </mxCell>
        <mxCell id="pZ9tJHDrhh_KwONNmrHl-77" value="&lt;font style=&quot;font-size: 16px;&quot;&gt;&lt;b&gt;(b)&lt;/b&gt;&lt;/font&gt;" style="text;html=1;align=center;verticalAlign=middle;whiteSpace=wrap;rounded=0;fontFamily=Helvetica;fontSize=11;fontColor=default;labelBackgroundColor=default;" parent="n9YYFZ5lC346JbtfTMl2-38" vertex="1">
          <mxGeometry x="249.75" y="290.5" width="60" height="30" as="geometry" />
        </mxCell>
        <mxCell id="J0j3YyQvNYbfIpje-4Qz-69" value="" style="group" parent="n9YYFZ5lC346JbtfTMl2-38" vertex="1" connectable="0">
          <mxGeometry x="570" width="218" height="230.5" as="geometry" />
        </mxCell>
        <mxCell id="J0j3YyQvNYbfIpje-4Qz-51" style="rounded=0;orthogonalLoop=1;jettySize=auto;html=1;exitX=1;exitY=1;exitDx=0;exitDy=0;endArrow=none;endFill=0;strokeWidth=2;entryX=0.5;entryY=0;entryDx=0;entryDy=0;" parent="J0j3YyQvNYbfIpje-4Qz-69" source="J0j3YyQvNYbfIpje-4Qz-53" target="J0j3YyQvNYbfIpje-4Qz-56" edge="1">
          <mxGeometry relative="1" as="geometry">
            <mxPoint x="180" y="120" as="targetPoint" />
          </mxGeometry>
        </mxCell>
        <mxCell id="J0j3YyQvNYbfIpje-4Qz-52" style="edgeStyle=none;shape=connector;rounded=0;orthogonalLoop=1;jettySize=auto;html=1;exitX=0;exitY=1;exitDx=0;exitDy=0;strokeColor=default;strokeWidth=2;align=center;verticalAlign=middle;fontFamily=Helvetica;fontSize=11;fontColor=default;labelBackgroundColor=default;endArrow=none;endFill=0;entryX=1;entryY=0.5;entryDx=0;entryDy=0;" parent="J0j3YyQvNYbfIpje-4Qz-69" source="J0j3YyQvNYbfIpje-4Qz-53" target="J0j3YyQvNYbfIpje-4Qz-67" edge="1">
          <mxGeometry relative="1" as="geometry">
            <mxPoint x="80" y="110" as="targetPoint" />
          </mxGeometry>
        </mxCell>
        <mxCell id="J0j3YyQvNYbfIpje-4Qz-53" value="0" style="ellipse;whiteSpace=wrap;html=1;aspect=fixed;fillColor=#d5e8d4;strokeColor=#82b366;gradientColor=#97d077;strokeWidth=2;fontSize=14;" parent="J0j3YyQvNYbfIpje-4Qz-69" vertex="1">
          <mxGeometry x="110" y="71.5" width="40" height="40" as="geometry" />
        </mxCell>
        <mxCell id="J0j3YyQvNYbfIpje-4Qz-54" style="edgeStyle=none;shape=connector;rounded=0;orthogonalLoop=1;jettySize=auto;html=1;exitX=0;exitY=1;exitDx=0;exitDy=0;entryX=1;entryY=0.5;entryDx=0;entryDy=0;strokeColor=default;strokeWidth=2;align=center;verticalAlign=middle;fontFamily=Helvetica;fontSize=11;fontColor=default;labelBackgroundColor=default;endArrow=none;endFill=0;" parent="J0j3YyQvNYbfIpje-4Qz-69" source="J0j3YyQvNYbfIpje-4Qz-56" target="J0j3YyQvNYbfIpje-4Qz-58" edge="1">
          <mxGeometry relative="1" as="geometry" />
        </mxCell>
        <mxCell id="J0j3YyQvNYbfIpje-4Qz-55" style="edgeStyle=none;shape=connector;rounded=0;orthogonalLoop=1;jettySize=auto;html=1;exitX=1;exitY=1;exitDx=0;exitDy=0;entryX=1;entryY=0.5;entryDx=0;entryDy=0;strokeColor=default;strokeWidth=2;align=center;verticalAlign=middle;fontFamily=Helvetica;fontSize=11;fontColor=default;labelBackgroundColor=default;endArrow=none;endFill=0;" parent="J0j3YyQvNYbfIpje-4Qz-69" source="J0j3YyQvNYbfIpje-4Qz-56" target="J0j3YyQvNYbfIpje-4Qz-59" edge="1">
          <mxGeometry relative="1" as="geometry" />
        </mxCell>
        <mxCell id="J0j3YyQvNYbfIpje-4Qz-56" value="0" style="ellipse;whiteSpace=wrap;html=1;aspect=fixed;fillColor=#d5e8d4;strokeColor=#82b366;gradientColor=#97d077;strokeWidth=2;fontSize=14;" parent="J0j3YyQvNYbfIpje-4Qz-69" vertex="1">
          <mxGeometry x="159" y="131.5" width="40" height="40" as="geometry" />
        </mxCell>
        <mxCell id="J0j3YyQvNYbfIpje-4Qz-58" value="h&lt;div style=&quot;font-size: 14px;&quot;&gt;&lt;br style=&quot;font-size: 14px;&quot;&gt;&lt;/div&gt;" style="triangle;whiteSpace=wrap;html=1;fontFamily=Helvetica;fontSize=14;fontColor=default;labelBackgroundColor=none;rotation=-90;textDirection=vertical-lr;strokeWidth=2;" parent="J0j3YyQvNYbfIpje-4Qz-69" vertex="1">
          <mxGeometry x="130" y="191.5" width="39" height="39" as="geometry" />
        </mxCell>
        <mxCell id="J0j3YyQvNYbfIpje-4Qz-59" value="h&lt;div style=&quot;font-size: 14px;&quot;&gt;&lt;br style=&quot;font-size: 14px;&quot;&gt;&lt;/div&gt;" style="triangle;whiteSpace=wrap;html=1;fontFamily=Helvetica;fontSize=14;fontColor=default;labelBackgroundColor=none;rotation=-90;textDirection=vertical-lr;strokeWidth=2;" parent="J0j3YyQvNYbfIpje-4Qz-69" vertex="1">
          <mxGeometry x="189" y="191.5" width="39" height="39" as="geometry" />
        </mxCell>
        <mxCell id="J0j3YyQvNYbfIpje-4Qz-60" value="Q&#39;" style="text;html=1;align=center;verticalAlign=middle;whiteSpace=wrap;rounded=0;fontFamily=Times New Roman;fontSize=17;fontColor=default;labelBackgroundColor=default;fontStyle=3" parent="J0j3YyQvNYbfIpje-4Qz-69" vertex="1">
          <mxGeometry x="149" y="61.5" width="20" height="30" as="geometry" />
        </mxCell>
        <mxCell id="J0j3YyQvNYbfIpje-4Qz-61" value="P" style="text;html=1;align=center;verticalAlign=middle;whiteSpace=wrap;rounded=0;fontFamily=Times New Roman;fontSize=17;fontColor=default;labelBackgroundColor=default;fontStyle=3" parent="J0j3YyQvNYbfIpje-4Qz-69" vertex="1">
          <mxGeometry x="198.5" y="121.5" width="20" height="30" as="geometry" />
        </mxCell>
        <mxCell id="J0j3YyQvNYbfIpje-4Qz-62" style="edgeStyle=none;shape=connector;rounded=0;orthogonalLoop=1;jettySize=auto;html=1;exitX=0;exitY=1;exitDx=0;exitDy=0;strokeColor=#B3B3B3;strokeWidth=2;align=center;verticalAlign=middle;fontFamily=Helvetica;fontSize=11;fontColor=default;labelBackgroundColor=default;endArrow=none;endFill=0;entryX=0.25;entryY=0.25;entryDx=0;entryDy=0;entryPerimeter=0;" parent="J0j3YyQvNYbfIpje-4Qz-69" source="J0j3YyQvNYbfIpje-4Qz-63" target="J0j3YyQvNYbfIpje-4Qz-64" edge="1">
          <mxGeometry relative="1" as="geometry">
            <mxPoint x="41" y="44" as="targetPoint" />
          </mxGeometry>
        </mxCell>
        <mxCell id="J0j3YyQvNYbfIpje-4Qz-63" value="" style="ellipse;whiteSpace=wrap;html=1;aspect=fixed;fillColor=#f5f5f5;strokeColor=#B3B3B3;gradientColor=#b3b3b3;strokeWidth=2;fontSize=14;" parent="J0j3YyQvNYbfIpje-4Qz-69" vertex="1">
          <mxGeometry x="70" y="10" width="40" height="40" as="geometry" />
        </mxCell>
        <mxCell id="J0j3YyQvNYbfIpje-4Qz-64" value="" style="ellipse;shape=cloud;whiteSpace=wrap;html=1;fontFamily=Helvetica;fontSize=11;fontColor=#333333;labelBackgroundColor=default;dashed=1;dashPattern=1 2;strokeColor=#666666;fillColor=#f5f5f5;flipH=1;" parent="J0j3YyQvNYbfIpje-4Qz-69" vertex="1">
          <mxGeometry y="50" width="70" height="80" as="geometry" />
        </mxCell>
        <mxCell id="J0j3YyQvNYbfIpje-4Qz-65" style="edgeStyle=none;shape=connector;rounded=0;orthogonalLoop=1;jettySize=auto;html=1;exitX=1;exitY=1;exitDx=0;exitDy=0;strokeColor=#B3B3B3;strokeWidth=2;align=center;verticalAlign=middle;fontFamily=Helvetica;fontSize=11;fontColor=default;labelBackgroundColor=default;endArrow=none;endFill=0;entryX=0.5;entryY=0;entryDx=0;entryDy=0;" parent="J0j3YyQvNYbfIpje-4Qz-69" source="J0j3YyQvNYbfIpje-4Qz-63" target="J0j3YyQvNYbfIpje-4Qz-53" edge="1">
          <mxGeometry relative="1" as="geometry">
            <mxPoint x="141" y="40" as="targetPoint" />
          </mxGeometry>
        </mxCell>
        <mxCell id="J0j3YyQvNYbfIpje-4Qz-66" value="G" style="text;html=1;align=center;verticalAlign=middle;whiteSpace=wrap;rounded=0;fontFamily=Times New Roman;fontSize=17;fontColor=#000000;labelBackgroundColor=default;fontStyle=3;strokeColor=none;fillColor=none;" parent="J0j3YyQvNYbfIpje-4Qz-69" vertex="1">
          <mxGeometry x="51" width="20" height="30" as="geometry" />
        </mxCell>
        <mxCell id="J0j3YyQvNYbfIpje-4Qz-67" value="&lt;div style=&quot;font-size: 13px;&quot;&gt;h+1&lt;br&gt;&lt;br&gt;&lt;br&gt;&lt;br&gt;&lt;br&gt;&lt;br&gt;&lt;/div&gt;" style="triangle;whiteSpace=wrap;html=1;fontFamily=Helvetica;fontSize=14;labelBackgroundColor=none;rotation=-90;textDirection=vertical-lr;strokeWidth=2;" parent="J0j3YyQvNYbfIpje-4Qz-69" vertex="1">
          <mxGeometry x="20" y="150" width="101" height="60" as="geometry" />
        </mxCell>
        <mxCell id="p05htmvmEgstM4E4skr5-87" value="" style="group" parent="J0j3YyQvNYbfIpje-4Qz-69" vertex="1" connectable="0">
          <mxGeometry x="31" y="118.5" width="60" height="50" as="geometry" />
        </mxCell>
        <mxCell id="p05htmvmEgstM4E4skr5-88" value="" style="ellipse;whiteSpace=wrap;html=1;aspect=fixed;fillColor=default;strokeColor=default;gradientColor=none;strokeWidth=2;fontSize=14;align=center;verticalAlign=middle;fontFamily=Helvetica;fontColor=default;labelBackgroundColor=none;" parent="p05htmvmEgstM4E4skr5-87" vertex="1">
          <mxGeometry x="20" y="10" width="40" height="40" as="geometry" />
        </mxCell>
        <mxCell id="p05htmvmEgstM4E4skr5-89" value="Q" style="text;html=1;align=center;verticalAlign=middle;whiteSpace=wrap;rounded=0;fontFamily=Times New Roman;fontSize=17;fontColor=default;labelBackgroundColor=none;fontStyle=3" parent="p05htmvmEgstM4E4skr5-87" vertex="1">
          <mxGeometry width="20" height="30" as="geometry" />
        </mxCell>
        <mxCell id="J0j3YyQvNYbfIpje-4Qz-73" value="" style="group" parent="n9YYFZ5lC346JbtfTMl2-38" vertex="1" connectable="0">
          <mxGeometry width="180" height="230.5" as="geometry" />
        </mxCell>
        <mxCell id="pZ9tJHDrhh_KwONNmrHl-138" style="rounded=0;orthogonalLoop=1;jettySize=auto;html=1;exitX=1;exitY=1;exitDx=0;exitDy=0;endArrow=none;endFill=0;strokeWidth=2;entryX=1;entryY=0.5;entryDx=0;entryDy=0;" parent="J0j3YyQvNYbfIpje-4Qz-73" source="pZ9tJHDrhh_KwONNmrHl-140" target="pZ9tJHDrhh_KwONNmrHl-144" edge="1">
          <mxGeometry relative="1" as="geometry">
            <mxPoint x="101" y="121.5" as="targetPoint" />
          </mxGeometry>
        </mxCell>
        <mxCell id="pZ9tJHDrhh_KwONNmrHl-139" style="edgeStyle=none;shape=connector;rounded=0;orthogonalLoop=1;jettySize=auto;html=1;exitX=0;exitY=1;exitDx=0;exitDy=0;strokeColor=default;strokeWidth=2;align=center;verticalAlign=middle;fontFamily=Helvetica;fontSize=11;fontColor=default;labelBackgroundColor=default;endArrow=none;endFill=0;entryX=0.5;entryY=0;entryDx=0;entryDy=0;" parent="J0j3YyQvNYbfIpje-4Qz-73" source="pZ9tJHDrhh_KwONNmrHl-140" target="pZ9tJHDrhh_KwONNmrHl-143" edge="1">
          <mxGeometry relative="1" as="geometry">
            <mxPoint x="31" y="111.5" as="targetPoint" />
          </mxGeometry>
        </mxCell>
        <mxCell id="pZ9tJHDrhh_KwONNmrHl-140" value="-1" style="ellipse;whiteSpace=wrap;html=1;aspect=fixed;fillColor=#d5e8d4;strokeColor=#82b366;gradientColor=#97d077;strokeWidth=2;fontSize=14;" parent="J0j3YyQvNYbfIpje-4Qz-73" vertex="1">
          <mxGeometry x="111" y="71.5" width="40" height="40" as="geometry" />
        </mxCell>
        <mxCell id="pZ9tJHDrhh_KwONNmrHl-141" style="edgeStyle=none;shape=connector;rounded=0;orthogonalLoop=1;jettySize=auto;html=1;exitX=0;exitY=1;exitDx=0;exitDy=0;entryX=1;entryY=0.5;entryDx=0;entryDy=0;strokeColor=default;strokeWidth=2;align=center;verticalAlign=middle;fontFamily=Helvetica;fontSize=11;fontColor=default;labelBackgroundColor=default;endArrow=none;endFill=0;" parent="J0j3YyQvNYbfIpje-4Qz-73" source="pZ9tJHDrhh_KwONNmrHl-143" target="pZ9tJHDrhh_KwONNmrHl-145" edge="1">
          <mxGeometry relative="1" as="geometry" />
        </mxCell>
        <mxCell id="pZ9tJHDrhh_KwONNmrHl-142" style="edgeStyle=none;shape=connector;rounded=0;orthogonalLoop=1;jettySize=auto;html=1;exitX=1;exitY=1;exitDx=0;exitDy=0;entryX=1;entryY=0.5;entryDx=0;entryDy=0;strokeColor=default;strokeWidth=2;align=center;verticalAlign=middle;fontFamily=Helvetica;fontSize=11;fontColor=default;labelBackgroundColor=default;endArrow=none;endFill=0;" parent="J0j3YyQvNYbfIpje-4Qz-73" source="pZ9tJHDrhh_KwONNmrHl-143" target="pZ9tJHDrhh_KwONNmrHl-146" edge="1">
          <mxGeometry relative="1" as="geometry" />
        </mxCell>
        <mxCell id="pZ9tJHDrhh_KwONNmrHl-143" value="0" style="ellipse;whiteSpace=wrap;html=1;aspect=fixed;fillColor=#d5e8d4;strokeColor=#82b366;gradientColor=#97d077;strokeWidth=2;fontSize=14;" parent="J0j3YyQvNYbfIpje-4Qz-73" vertex="1">
          <mxGeometry x="81" y="131.5" width="40" height="40" as="geometry" />
        </mxCell>
        <mxCell id="pZ9tJHDrhh_KwONNmrHl-144" value="h&lt;div style=&quot;font-size: 14px;&quot;&gt;&lt;br style=&quot;font-size: 14px;&quot;&gt;&lt;/div&gt;" style="triangle;whiteSpace=wrap;html=1;fontFamily=Helvetica;fontSize=14;fontColor=default;labelBackgroundColor=none;rotation=-90;textDirection=vertical-lr;strokeWidth=2;" parent="J0j3YyQvNYbfIpje-4Qz-73" vertex="1">
          <mxGeometry x="141" y="131.5" width="39" height="39" as="geometry" />
        </mxCell>
        <mxCell id="pZ9tJHDrhh_KwONNmrHl-145" value="h&lt;div style=&quot;font-size: 14px;&quot;&gt;&lt;br style=&quot;font-size: 14px;&quot;&gt;&lt;/div&gt;" style="triangle;whiteSpace=wrap;html=1;fontFamily=Helvetica;fontSize=14;fontColor=default;labelBackgroundColor=none;rotation=-90;textDirection=vertical-lr;strokeWidth=2;" parent="J0j3YyQvNYbfIpje-4Qz-73" vertex="1">
          <mxGeometry x="52" y="191.5" width="39" height="39" as="geometry" />
        </mxCell>
        <mxCell id="pZ9tJHDrhh_KwONNmrHl-146" value="h&lt;div style=&quot;font-size: 14px;&quot;&gt;&lt;br style=&quot;font-size: 14px;&quot;&gt;&lt;/div&gt;" style="triangle;whiteSpace=wrap;html=1;fontFamily=Helvetica;fontSize=14;fontColor=default;labelBackgroundColor=none;rotation=-90;textDirection=vertical-lr;strokeWidth=2;" parent="J0j3YyQvNYbfIpje-4Qz-73" vertex="1">
          <mxGeometry x="111" y="191.5" width="39" height="39" as="geometry" />
        </mxCell>
        <mxCell id="pZ9tJHDrhh_KwONNmrHl-147" value="P" style="text;html=1;align=center;verticalAlign=middle;whiteSpace=wrap;rounded=0;fontFamily=Times New Roman;fontSize=17;fontColor=default;labelBackgroundColor=default;fontStyle=3" parent="J0j3YyQvNYbfIpje-4Qz-73" vertex="1">
          <mxGeometry x="151" y="60" width="20" height="30" as="geometry" />
        </mxCell>
        <mxCell id="pZ9tJHDrhh_KwONNmrHl-148" value="Q" style="text;html=1;align=center;verticalAlign=middle;whiteSpace=wrap;rounded=0;fontFamily=Times New Roman;fontSize=17;fontColor=default;labelBackgroundColor=default;fontStyle=3" parent="J0j3YyQvNYbfIpje-4Qz-73" vertex="1">
          <mxGeometry x="61.5" y="121.5" width="20" height="30" as="geometry" />
        </mxCell>
        <mxCell id="pZ9tJHDrhh_KwONNmrHl-149" style="edgeStyle=none;shape=connector;rounded=0;orthogonalLoop=1;jettySize=auto;html=1;exitX=0;exitY=1;exitDx=0;exitDy=0;strokeColor=#B3B3B3;strokeWidth=2;align=center;verticalAlign=middle;fontFamily=Helvetica;fontSize=11;fontColor=default;labelBackgroundColor=default;endArrow=none;endFill=0;entryX=0.25;entryY=0.25;entryDx=0;entryDy=0;entryPerimeter=0;" parent="J0j3YyQvNYbfIpje-4Qz-73" source="pZ9tJHDrhh_KwONNmrHl-150" target="pZ9tJHDrhh_KwONNmrHl-151" edge="1">
          <mxGeometry relative="1" as="geometry">
            <mxPoint x="41" y="44" as="targetPoint" />
          </mxGeometry>
        </mxCell>
        <mxCell id="pZ9tJHDrhh_KwONNmrHl-150" value="" style="ellipse;whiteSpace=wrap;html=1;aspect=fixed;fillColor=#f5f5f5;strokeColor=#B3B3B3;gradientColor=#b3b3b3;strokeWidth=2;fontSize=14;" parent="J0j3YyQvNYbfIpje-4Qz-73" vertex="1">
          <mxGeometry x="70" y="10" width="40" height="40" as="geometry" />
        </mxCell>
        <mxCell id="pZ9tJHDrhh_KwONNmrHl-151" value="" style="ellipse;shape=cloud;whiteSpace=wrap;html=1;fontFamily=Helvetica;fontSize=11;fontColor=#333333;labelBackgroundColor=default;dashed=1;dashPattern=1 2;strokeColor=#666666;fillColor=#f5f5f5;flipH=1;" parent="J0j3YyQvNYbfIpje-4Qz-73" vertex="1">
          <mxGeometry y="50" width="70" height="80" as="geometry" />
        </mxCell>
        <mxCell id="pZ9tJHDrhh_KwONNmrHl-152" style="edgeStyle=none;shape=connector;rounded=0;orthogonalLoop=1;jettySize=auto;html=1;exitX=1;exitY=1;exitDx=0;exitDy=0;strokeColor=#B3B3B3;strokeWidth=2;align=center;verticalAlign=middle;fontFamily=Helvetica;fontSize=11;fontColor=default;labelBackgroundColor=default;endArrow=none;endFill=0;entryX=0.5;entryY=0;entryDx=0;entryDy=0;" parent="J0j3YyQvNYbfIpje-4Qz-73" source="pZ9tJHDrhh_KwONNmrHl-150" target="pZ9tJHDrhh_KwONNmrHl-140" edge="1">
          <mxGeometry relative="1" as="geometry">
            <mxPoint x="141" y="40" as="targetPoint" />
          </mxGeometry>
        </mxCell>
        <mxCell id="pZ9tJHDrhh_KwONNmrHl-153" value="G" style="text;html=1;align=center;verticalAlign=middle;whiteSpace=wrap;rounded=0;fontFamily=Times New Roman;fontSize=17;fontColor=#000000;labelBackgroundColor=default;fontStyle=3;strokeColor=none;fillColor=none;" parent="J0j3YyQvNYbfIpje-4Qz-73" vertex="1">
          <mxGeometry x="51" width="20" height="30" as="geometry" />
        </mxCell>
        <mxCell id="Ct9E3FIXZkjE8i85__Dk-58" value="" style="group" parent="n9YYFZ5lC346JbtfTMl2-38" vertex="1" connectable="0">
          <mxGeometry x="190" width="179.5" height="290.5" as="geometry" />
        </mxCell>
        <mxCell id="J0j3YyQvNYbfIpje-4Qz-30" value="&lt;div style=&quot;font-size: 13px;&quot;&gt;h+1&lt;br&gt;&lt;br&gt;&lt;br&gt;&lt;br&gt;&lt;br&gt;&lt;br&gt;&lt;/div&gt;" style="triangle;whiteSpace=wrap;html=1;fontFamily=Helvetica;fontSize=14;labelBackgroundColor=none;rotation=-90;textDirection=vertical-lr;strokeWidth=2;fillColor=#dae8fc;gradientColor=#7ea6e0;strokeColor=#6c8ebf;" parent="Ct9E3FIXZkjE8i85__Dk-58" vertex="1">
          <mxGeometry x="78.5" y="210" width="101" height="60" as="geometry" />
        </mxCell>
        <mxCell id="J0j3YyQvNYbfIpje-4Qz-33" style="rounded=0;orthogonalLoop=1;jettySize=auto;html=1;exitX=1;exitY=1;exitDx=0;exitDy=0;endArrow=none;endFill=0;strokeWidth=2;entryX=1;entryY=0.5;entryDx=0;entryDy=0;" parent="Ct9E3FIXZkjE8i85__Dk-58" source="J0j3YyQvNYbfIpje-4Qz-35" target="J0j3YyQvNYbfIpje-4Qz-39" edge="1">
          <mxGeometry relative="1" as="geometry">
            <mxPoint x="130" y="120" as="targetPoint" />
          </mxGeometry>
        </mxCell>
        <mxCell id="J0j3YyQvNYbfIpje-4Qz-34" style="edgeStyle=none;shape=connector;rounded=0;orthogonalLoop=1;jettySize=auto;html=1;exitX=0;exitY=1;exitDx=0;exitDy=0;strokeColor=default;strokeWidth=2;align=center;verticalAlign=middle;fontFamily=Helvetica;fontSize=11;fontColor=default;labelBackgroundColor=default;endArrow=none;endFill=0;entryX=0.5;entryY=0;entryDx=0;entryDy=0;" parent="Ct9E3FIXZkjE8i85__Dk-58" source="J0j3YyQvNYbfIpje-4Qz-35" target="J0j3YyQvNYbfIpje-4Qz-38" edge="1">
          <mxGeometry relative="1" as="geometry">
            <mxPoint x="60" y="110" as="targetPoint" />
          </mxGeometry>
        </mxCell>
        <mxCell id="J0j3YyQvNYbfIpje-4Qz-35" value="-2" style="ellipse;whiteSpace=wrap;html=1;aspect=fixed;fillColor=#f8cecc;strokeColor=#b85450;gradientColor=#ea6b66;strokeWidth=2;fontSize=14;" parent="Ct9E3FIXZkjE8i85__Dk-58" vertex="1">
          <mxGeometry x="110.5" y="70" width="40" height="40" as="geometry" />
        </mxCell>
        <mxCell id="J0j3YyQvNYbfIpje-4Qz-36" style="edgeStyle=none;shape=connector;rounded=0;orthogonalLoop=1;jettySize=auto;html=1;exitX=0;exitY=1;exitDx=0;exitDy=0;strokeColor=default;strokeWidth=2;align=center;verticalAlign=middle;fontFamily=Helvetica;fontSize=11;fontColor=default;labelBackgroundColor=default;endArrow=none;endFill=0;entryX=1;entryY=0.5;entryDx=0;entryDy=0;" parent="Ct9E3FIXZkjE8i85__Dk-58" source="J0j3YyQvNYbfIpje-4Qz-38" target="J0j3YyQvNYbfIpje-4Qz-41" edge="1">
          <mxGeometry relative="1" as="geometry">
            <mxPoint x="58" y="170" as="targetPoint" />
          </mxGeometry>
        </mxCell>
        <mxCell id="J0j3YyQvNYbfIpje-4Qz-37" style="edgeStyle=none;shape=connector;rounded=0;orthogonalLoop=1;jettySize=auto;html=1;exitX=1;exitY=1;exitDx=0;exitDy=0;strokeColor=default;strokeWidth=2;align=center;verticalAlign=middle;fontFamily=Helvetica;fontSize=11;fontColor=default;labelBackgroundColor=default;endArrow=none;endFill=0;entryX=1;entryY=0.5;entryDx=0;entryDy=0;" parent="Ct9E3FIXZkjE8i85__Dk-58" source="J0j3YyQvNYbfIpje-4Qz-38" target="J0j3YyQvNYbfIpje-4Qz-30" edge="1">
          <mxGeometry relative="1" as="geometry">
            <mxPoint x="108" y="190" as="targetPoint" />
          </mxGeometry>
        </mxCell>
        <mxCell id="J0j3YyQvNYbfIpje-4Qz-38" value="+1" style="ellipse;whiteSpace=wrap;html=1;aspect=fixed;fillColor=#fff2cc;strokeColor=#d6b656;gradientColor=#ffd966;strokeWidth=2;fontSize=14;" parent="Ct9E3FIXZkjE8i85__Dk-58" vertex="1">
          <mxGeometry x="80.5" y="130" width="40" height="40" as="geometry" />
        </mxCell>
        <mxCell id="J0j3YyQvNYbfIpje-4Qz-39" value="h&lt;div style=&quot;font-size: 14px;&quot;&gt;&lt;br style=&quot;font-size: 14px;&quot;&gt;&lt;/div&gt;" style="triangle;whiteSpace=wrap;html=1;fontFamily=Helvetica;fontSize=14;fontColor=default;labelBackgroundColor=none;rotation=-90;textDirection=vertical-lr;strokeWidth=2;" parent="Ct9E3FIXZkjE8i85__Dk-58" vertex="1">
          <mxGeometry x="140.5" y="130" width="39" height="39" as="geometry" />
        </mxCell>
        <mxCell id="J0j3YyQvNYbfIpje-4Qz-41" value="h&lt;div style=&quot;font-size: 14px;&quot;&gt;&lt;br style=&quot;font-size: 14px;&quot;&gt;&lt;/div&gt;" style="triangle;whiteSpace=wrap;html=1;fontFamily=Helvetica;fontSize=14;fontColor=default;labelBackgroundColor=none;rotation=-90;textDirection=vertical-lr;strokeWidth=2;" parent="Ct9E3FIXZkjE8i85__Dk-58" vertex="1">
          <mxGeometry x="51.5" y="190" width="39" height="39" as="geometry" />
        </mxCell>
        <mxCell id="J0j3YyQvNYbfIpje-4Qz-42" value="P" style="text;html=1;align=center;verticalAlign=middle;whiteSpace=wrap;rounded=0;fontFamily=Times New Roman;fontSize=17;fontColor=default;labelBackgroundColor=default;fontStyle=3" parent="Ct9E3FIXZkjE8i85__Dk-58" vertex="1">
          <mxGeometry x="150.5" y="60" width="20" height="30" as="geometry" />
        </mxCell>
        <mxCell id="J0j3YyQvNYbfIpje-4Qz-43" value="Q" style="text;html=1;align=center;verticalAlign=middle;whiteSpace=wrap;rounded=0;fontFamily=Times New Roman;fontSize=17;fontColor=default;labelBackgroundColor=default;fontStyle=3" parent="Ct9E3FIXZkjE8i85__Dk-58" vertex="1">
          <mxGeometry x="61" y="120" width="20" height="30" as="geometry" />
        </mxCell>
        <mxCell id="J0j3YyQvNYbfIpje-4Qz-44" style="edgeStyle=none;shape=connector;rounded=0;orthogonalLoop=1;jettySize=auto;html=1;exitX=0;exitY=1;exitDx=0;exitDy=0;strokeColor=#B3B3B3;strokeWidth=2;align=center;verticalAlign=middle;fontFamily=Helvetica;fontSize=11;fontColor=default;labelBackgroundColor=default;endArrow=none;endFill=0;entryX=0.25;entryY=0.25;entryDx=0;entryDy=0;entryPerimeter=0;" parent="Ct9E3FIXZkjE8i85__Dk-58" source="J0j3YyQvNYbfIpje-4Qz-45" target="J0j3YyQvNYbfIpje-4Qz-46" edge="1">
          <mxGeometry relative="1" as="geometry">
            <mxPoint x="41" y="44" as="targetPoint" />
          </mxGeometry>
        </mxCell>
        <mxCell id="J0j3YyQvNYbfIpje-4Qz-45" value="" style="ellipse;whiteSpace=wrap;html=1;aspect=fixed;fillColor=#f5f5f5;strokeColor=#B3B3B3;gradientColor=#b3b3b3;strokeWidth=2;fontSize=14;" parent="Ct9E3FIXZkjE8i85__Dk-58" vertex="1">
          <mxGeometry x="70" y="10" width="40" height="40" as="geometry" />
        </mxCell>
        <mxCell id="J0j3YyQvNYbfIpje-4Qz-46" value="" style="ellipse;shape=cloud;whiteSpace=wrap;html=1;fontFamily=Helvetica;fontSize=11;fontColor=#333333;labelBackgroundColor=default;dashed=1;dashPattern=1 2;strokeColor=#666666;fillColor=#f5f5f5;flipH=1;" parent="Ct9E3FIXZkjE8i85__Dk-58" vertex="1">
          <mxGeometry y="50" width="70" height="80" as="geometry" />
        </mxCell>
        <mxCell id="J0j3YyQvNYbfIpje-4Qz-47" style="edgeStyle=none;shape=connector;rounded=0;orthogonalLoop=1;jettySize=auto;html=1;exitX=1;exitY=1;exitDx=0;exitDy=0;strokeColor=#B3B3B3;strokeWidth=2;align=center;verticalAlign=middle;fontFamily=Helvetica;fontSize=11;fontColor=default;labelBackgroundColor=default;endArrow=none;endFill=0;entryX=0.5;entryY=0;entryDx=0;entryDy=0;" parent="Ct9E3FIXZkjE8i85__Dk-58" source="J0j3YyQvNYbfIpje-4Qz-45" target="J0j3YyQvNYbfIpje-4Qz-35" edge="1">
          <mxGeometry relative="1" as="geometry">
            <mxPoint x="141" y="40" as="targetPoint" />
          </mxGeometry>
        </mxCell>
        <mxCell id="J0j3YyQvNYbfIpje-4Qz-48" value="G" style="text;html=1;align=center;verticalAlign=middle;whiteSpace=wrap;rounded=0;fontFamily=Times New Roman;fontSize=17;fontColor=#000000;labelBackgroundColor=default;fontStyle=3;strokeColor=none;fillColor=none;" parent="Ct9E3FIXZkjE8i85__Dk-58" vertex="1">
          <mxGeometry x="51" width="20" height="30" as="geometry" />
        </mxCell>
        <mxCell id="p05htmvmEgstM4E4skr5-81" value="" style="group" parent="Ct9E3FIXZkjE8i85__Dk-58" vertex="1" connectable="0">
          <mxGeometry x="110.5" y="180" width="60" height="50" as="geometry" />
        </mxCell>
        <mxCell id="p05htmvmEgstM4E4skr5-82" value="" style="ellipse;whiteSpace=wrap;html=1;aspect=fixed;fillColor=#dae8fc;strokeColor=#6c8ebf;gradientColor=#7ea6e0;strokeWidth=2;fontSize=14;align=center;verticalAlign=middle;fontFamily=Helvetica;" parent="p05htmvmEgstM4E4skr5-81" vertex="1">
          <mxGeometry y="10" width="40" height="40" as="geometry" />
        </mxCell>
        <mxCell id="p05htmvmEgstM4E4skr5-83" value="Q&#39;" style="text;html=1;align=center;verticalAlign=middle;whiteSpace=wrap;rounded=0;fontFamily=Times New Roman;fontSize=17;fontColor=default;labelBackgroundColor=default;fontStyle=3" parent="p05htmvmEgstM4E4skr5-81" vertex="1">
          <mxGeometry x="40" width="20" height="30" as="geometry" />
        </mxCell>
        <mxCell id="n9YYFZ5lC346JbtfTMl2-36" value="" style="shape=flexArrow;endArrow=classic;html=1;rounded=0;fillColor=#ffcccc;strokeColor=none;opacity=50;" parent="Ct9E3FIXZkjE8i85__Dk-58" edge="1">
          <mxGeometry width="50" height="50" relative="1" as="geometry">
            <mxPoint x="166" y="40" as="sourcePoint" />
            <mxPoint x="190" y="310" as="targetPoint" />
            <Array as="points">
              <mxPoint x="98" y="150" />
            </Array>
          </mxGeometry>
        </mxCell>
        <mxCell id="n9YYFZ5lC346JbtfTMl2-18" value="" style="group" parent="n9YYFZ5lC346JbtfTMl2-38" vertex="1" connectable="0">
          <mxGeometry x="380" width="179.5" height="320.5" as="geometry" />
        </mxCell>
        <mxCell id="n9YYFZ5lC346JbtfTMl2-19" value="&lt;div style=&quot;font-size: 13px;&quot;&gt;h+1&lt;br&gt;&lt;br&gt;&lt;br&gt;&lt;br&gt;&lt;br&gt;&lt;br&gt;&lt;/div&gt;" style="triangle;whiteSpace=wrap;html=1;fontFamily=Helvetica;fontSize=14;labelBackgroundColor=none;rotation=-90;textDirection=vertical-lr;strokeWidth=2;fillColor=#E5CCFF;gradientColor=#9933FF;strokeColor=#6c8ebf;" parent="n9YYFZ5lC346JbtfTMl2-18" vertex="1">
          <mxGeometry x="18.75" y="210" width="101" height="60" as="geometry" />
        </mxCell>
        <mxCell id="n9YYFZ5lC346JbtfTMl2-20" style="rounded=0;orthogonalLoop=1;jettySize=auto;html=1;exitX=1;exitY=1;exitDx=0;exitDy=0;endArrow=none;endFill=0;strokeWidth=2;entryX=1;entryY=0.5;entryDx=0;entryDy=0;" parent="n9YYFZ5lC346JbtfTMl2-18" source="n9YYFZ5lC346JbtfTMl2-22" target="n9YYFZ5lC346JbtfTMl2-26" edge="1">
          <mxGeometry relative="1" as="geometry">
            <mxPoint x="130" y="120" as="targetPoint" />
          </mxGeometry>
        </mxCell>
        <mxCell id="n9YYFZ5lC346JbtfTMl2-21" style="edgeStyle=none;shape=connector;rounded=0;orthogonalLoop=1;jettySize=auto;html=1;exitX=0;exitY=1;exitDx=0;exitDy=0;strokeColor=default;strokeWidth=2;align=center;verticalAlign=middle;fontFamily=Helvetica;fontSize=11;fontColor=default;labelBackgroundColor=default;endArrow=none;endFill=0;entryX=0.5;entryY=0;entryDx=0;entryDy=0;" parent="n9YYFZ5lC346JbtfTMl2-18" source="n9YYFZ5lC346JbtfTMl2-22" target="n9YYFZ5lC346JbtfTMl2-25" edge="1">
          <mxGeometry relative="1" as="geometry">
            <mxPoint x="60" y="110" as="targetPoint" />
          </mxGeometry>
        </mxCell>
        <mxCell id="n9YYFZ5lC346JbtfTMl2-22" value="-2" style="ellipse;whiteSpace=wrap;html=1;aspect=fixed;fillColor=#f8cecc;strokeColor=#b85450;gradientColor=#ea6b66;strokeWidth=2;fontSize=14;" parent="n9YYFZ5lC346JbtfTMl2-18" vertex="1">
          <mxGeometry x="110.5" y="70" width="40" height="40" as="geometry" />
        </mxCell>
        <mxCell id="n9YYFZ5lC346JbtfTMl2-23" style="edgeStyle=none;shape=connector;rounded=0;orthogonalLoop=1;jettySize=auto;html=1;exitX=0;exitY=1;exitDx=0;exitDy=0;strokeColor=default;strokeWidth=2;align=center;verticalAlign=middle;fontFamily=Helvetica;fontSize=11;fontColor=default;labelBackgroundColor=default;endArrow=none;endFill=0;entryX=1;entryY=0.5;entryDx=0;entryDy=0;" parent="n9YYFZ5lC346JbtfTMl2-18" source="n9YYFZ5lC346JbtfTMl2-25" target="n9YYFZ5lC346JbtfTMl2-19" edge="1">
          <mxGeometry relative="1" as="geometry">
            <mxPoint x="90" y="170" as="targetPoint" />
          </mxGeometry>
        </mxCell>
        <mxCell id="n9YYFZ5lC346JbtfTMl2-24" style="edgeStyle=none;shape=connector;rounded=0;orthogonalLoop=1;jettySize=auto;html=1;exitX=1;exitY=1;exitDx=0;exitDy=0;entryX=1;entryY=0.5;entryDx=0;entryDy=0;strokeColor=default;strokeWidth=2;align=center;verticalAlign=middle;fontFamily=Helvetica;fontSize=11;fontColor=default;labelBackgroundColor=default;endArrow=none;endFill=0;" parent="n9YYFZ5lC346JbtfTMl2-18" source="n9YYFZ5lC346JbtfTMl2-25" target="n9YYFZ5lC346JbtfTMl2-27" edge="1">
          <mxGeometry relative="1" as="geometry" />
        </mxCell>
        <mxCell id="n9YYFZ5lC346JbtfTMl2-25" value="-1" style="ellipse;whiteSpace=wrap;html=1;aspect=fixed;fillColor=#fff2cc;strokeColor=#d6b656;gradientColor=#ffd966;strokeWidth=2;fontSize=14;" parent="n9YYFZ5lC346JbtfTMl2-18" vertex="1">
          <mxGeometry x="80.5" y="130" width="40" height="40" as="geometry" />
        </mxCell>
        <mxCell id="n9YYFZ5lC346JbtfTMl2-26" value="h&lt;div style=&quot;font-size: 14px;&quot;&gt;&lt;br style=&quot;font-size: 14px;&quot;&gt;&lt;/div&gt;" style="triangle;whiteSpace=wrap;html=1;fontFamily=Helvetica;fontSize=14;fontColor=default;labelBackgroundColor=none;rotation=-90;textDirection=vertical-lr;strokeWidth=2;" parent="n9YYFZ5lC346JbtfTMl2-18" vertex="1">
          <mxGeometry x="140.5" y="130" width="39" height="39" as="geometry" />
        </mxCell>
        <mxCell id="n9YYFZ5lC346JbtfTMl2-27" value="h&lt;div style=&quot;font-size: 14px;&quot;&gt;&lt;br style=&quot;font-size: 14px;&quot;&gt;&lt;/div&gt;" style="triangle;whiteSpace=wrap;html=1;fontFamily=Helvetica;fontSize=14;fontColor=default;labelBackgroundColor=none;rotation=-90;textDirection=vertical-lr;strokeWidth=2;" parent="n9YYFZ5lC346JbtfTMl2-18" vertex="1">
          <mxGeometry x="110.5" y="190" width="39" height="39" as="geometry" />
        </mxCell>
        <mxCell id="n9YYFZ5lC346JbtfTMl2-28" value="P" style="text;html=1;align=center;verticalAlign=middle;whiteSpace=wrap;rounded=0;fontFamily=Times New Roman;fontSize=17;fontColor=default;labelBackgroundColor=default;fontStyle=3" parent="n9YYFZ5lC346JbtfTMl2-18" vertex="1">
          <mxGeometry x="150.5" y="60" width="20" height="30" as="geometry" />
        </mxCell>
        <mxCell id="n9YYFZ5lC346JbtfTMl2-29" value="Q&#39;" style="text;html=1;align=center;verticalAlign=middle;whiteSpace=wrap;rounded=0;fontFamily=Times New Roman;fontSize=17;fontColor=default;labelBackgroundColor=default;fontStyle=3" parent="n9YYFZ5lC346JbtfTMl2-18" vertex="1">
          <mxGeometry x="61" y="120" width="20" height="30" as="geometry" />
        </mxCell>
        <mxCell id="n9YYFZ5lC346JbtfTMl2-30" style="edgeStyle=none;shape=connector;rounded=0;orthogonalLoop=1;jettySize=auto;html=1;exitX=0;exitY=1;exitDx=0;exitDy=0;strokeColor=#B3B3B3;strokeWidth=2;align=center;verticalAlign=middle;fontFamily=Helvetica;fontSize=11;fontColor=default;labelBackgroundColor=default;endArrow=none;endFill=0;entryX=0.25;entryY=0.25;entryDx=0;entryDy=0;entryPerimeter=0;" parent="n9YYFZ5lC346JbtfTMl2-18" source="n9YYFZ5lC346JbtfTMl2-31" target="n9YYFZ5lC346JbtfTMl2-32" edge="1">
          <mxGeometry relative="1" as="geometry">
            <mxPoint x="41" y="44" as="targetPoint" />
          </mxGeometry>
        </mxCell>
        <mxCell id="n9YYFZ5lC346JbtfTMl2-31" value="" style="ellipse;whiteSpace=wrap;html=1;aspect=fixed;fillColor=#f5f5f5;strokeColor=#B3B3B3;gradientColor=#b3b3b3;strokeWidth=2;fontSize=14;" parent="n9YYFZ5lC346JbtfTMl2-18" vertex="1">
          <mxGeometry x="70" y="10" width="40" height="40" as="geometry" />
        </mxCell>
        <mxCell id="n9YYFZ5lC346JbtfTMl2-32" value="" style="ellipse;shape=cloud;whiteSpace=wrap;html=1;fontFamily=Helvetica;fontSize=11;fontColor=#333333;labelBackgroundColor=default;dashed=1;dashPattern=1 2;strokeColor=#666666;fillColor=#f5f5f5;flipH=1;" parent="n9YYFZ5lC346JbtfTMl2-18" vertex="1">
          <mxGeometry y="50" width="70" height="80" as="geometry" />
        </mxCell>
        <mxCell id="n9YYFZ5lC346JbtfTMl2-33" style="edgeStyle=none;shape=connector;rounded=0;orthogonalLoop=1;jettySize=auto;html=1;exitX=1;exitY=1;exitDx=0;exitDy=0;strokeColor=#B3B3B3;strokeWidth=2;align=center;verticalAlign=middle;fontFamily=Helvetica;fontSize=11;fontColor=default;labelBackgroundColor=default;endArrow=none;endFill=0;entryX=0.5;entryY=0;entryDx=0;entryDy=0;" parent="n9YYFZ5lC346JbtfTMl2-18" source="n9YYFZ5lC346JbtfTMl2-31" target="n9YYFZ5lC346JbtfTMl2-22" edge="1">
          <mxGeometry relative="1" as="geometry">
            <mxPoint x="141" y="40" as="targetPoint" />
          </mxGeometry>
        </mxCell>
        <mxCell id="n9YYFZ5lC346JbtfTMl2-34" value="G" style="text;html=1;align=center;verticalAlign=middle;whiteSpace=wrap;rounded=0;fontFamily=Times New Roman;fontSize=17;fontColor=#000000;labelBackgroundColor=default;fontStyle=3;strokeColor=none;fillColor=none;" parent="n9YYFZ5lC346JbtfTMl2-18" vertex="1">
          <mxGeometry x="51" width="20" height="30" as="geometry" />
        </mxCell>
        <mxCell id="p05htmvmEgstM4E4skr5-84" value="" style="group" parent="n9YYFZ5lC346JbtfTMl2-18" vertex="1" connectable="0">
          <mxGeometry x="30" y="179" width="60" height="50" as="geometry" />
        </mxCell>
        <mxCell id="p05htmvmEgstM4E4skr5-85" value="" style="ellipse;whiteSpace=wrap;html=1;aspect=fixed;fillColor=#E5CCFF;strokeColor=#6c8ebf;gradientColor=#9933FF;strokeWidth=2;fontSize=14;align=center;verticalAlign=middle;fontFamily=Helvetica;fontColor=default;labelBackgroundColor=none;" parent="p05htmvmEgstM4E4skr5-84" vertex="1">
          <mxGeometry x="20" y="10" width="40" height="40" as="geometry" />
        </mxCell>
        <mxCell id="p05htmvmEgstM4E4skr5-86" value="Q" style="text;html=1;align=center;verticalAlign=middle;whiteSpace=wrap;rounded=0;fontFamily=Times New Roman;fontSize=17;fontColor=default;labelBackgroundColor=default;fontStyle=3" parent="p05htmvmEgstM4E4skr5-84" vertex="1">
          <mxGeometry width="20" height="30" as="geometry" />
        </mxCell>
        <mxCell id="n9YYFZ5lC346JbtfTMl2-35" value="" style="shape=flexArrow;endArrow=classic;html=1;rounded=0;fillColor=#ffcccc;strokeColor=none;opacity=50;" parent="n9YYFZ5lC346JbtfTMl2-18" edge="1">
          <mxGeometry width="50" height="50" relative="1" as="geometry">
            <mxPoint x="158" y="40" as="sourcePoint" />
            <mxPoint x="10" y="310" as="targetPoint" />
          </mxGeometry>
        </mxCell>
        <mxCell id="pZ9tJHDrhh_KwONNmrHl-78" value="&lt;font style=&quot;font-size: 16px;&quot;&gt;&lt;b&gt;(c)&lt;/b&gt;&lt;/font&gt;" style="text;html=1;align=center;verticalAlign=middle;whiteSpace=wrap;rounded=0;fontFamily=Helvetica;fontSize=11;fontColor=default;labelBackgroundColor=default;" parent="n9YYFZ5lC346JbtfTMl2-18" vertex="1">
          <mxGeometry x="59.75" y="290.5" width="60" height="30" as="geometry" />
        </mxCell>
        <mxCell id="n9YYFZ5lC346JbtfTMl2-37" value="&lt;font style=&quot;font-size: 16px;&quot;&gt;&lt;b&gt;(d)&lt;/b&gt;&lt;/font&gt;" style="text;html=1;align=center;verticalAlign=middle;whiteSpace=wrap;rounded=0;fontFamily=Helvetica;fontSize=11;fontColor=default;labelBackgroundColor=default;" parent="n9YYFZ5lC346JbtfTMl2-38" vertex="1">
          <mxGeometry x="649" y="290.5" width="60" height="30" as="geometry" />
        </mxCell>
      </root>
    </mxGraphModel>
  </diagram>
</mxfile>
